HIERARCHY
ROOT Hips
{
  OFFSET -102.467 93.6631 130.069
  CHANNELS 6 Xposition Yposition Zposition Zrotation Xrotation Yrotation
  JOINT LeftUpLeg
  {
    OFFSET 8.64259 1.95398 -2.38835
    CHANNELS 3 Zrotation Xrotation Yrotation
    JOINT LeftLeg
    {
      OFFSET 43.7702 0 0
      CHANNELS 3 Zrotation Xrotation Yrotation
      JOINT LeftFoot
      {
        OFFSET 40.6238 0 0
        CHANNELS 3 Zrotation Xrotation Yrotation
        JOINT LeftToeBase
        {
          OFFSET 12.7242 0 0
          CHANNELS 3 Zrotation Xrotation Yrotation
          End Site
          {
            OFFSET 0 0 0
          }
        }
      }
    }
  }
  JOINT RightUpLeg
  {
    OFFSET -8.2249 1.95398 -2.59336
    CHANNELS 3 Zrotation Xrotation Yrotation
    JOINT RightLeg
    {
      OFFSET 43.5653 0 0
      CHANNELS 3 Zrotation Xrotation Yrotation
      JOINT RightFoot
      {
        OFFSET 40.6238 0 0
        CHANNELS 3 Zrotation Xrotation Yrotation
        JOINT RightToeBase
        {
          OFFSET 12.7242 0 0
          CHANNELS 3 Zrotation Xrotation Yrotation
          End Site
          {
            OFFSET 0 0 0
          }
        }
      }
    }
  }
  JOINT Spine
  {
    OFFSET 0.165834 0.87714 6.61349
    CHANNELS 3 Zrotation Xrotation Yrotation
    JOINT Spine1
    {
      OFFSET 7.38963 1.71661e-005 0
      CHANNELS 3 Zrotation Xrotation Yrotation
      JOINT Spine2
      {
        OFFSET 11.9445 1.14441e-005 0
        CHANNELS 3 Zrotation Xrotation Yrotation
        JOINT Spine3
        {
          OFFSET 14.7254 4.19617e-005 0
          CHANNELS 3 Zrotation Xrotation Yrotation
          JOINT Spine4
          {
            OFFSET 10.9679 0 0
            CHANNELS 3 Zrotation Xrotation Yrotation
            JOINT RightShoulder
            {
              OFFSET 2.46616 -1.6653 3.69651
              CHANNELS 3 Zrotation Xrotation Yrotation
              JOINT RightArm
              {
                OFFSET 13.0012 0 0
                CHANNELS 3 Zrotation Xrotation Yrotation
                JOINT RightForeArm
                {
                  OFFSET 28.7848 1.52588e-005 0
                  CHANNELS 3 Zrotation Xrotation Yrotation
                  JOINT RightHand
                  {
                    OFFSET 26.5688 1.52588e-005 0
                    CHANNELS 3 Zrotation Xrotation Yrotation
                    End Site
                    {
                      OFFSET 0 0 0
                    }
                  }
                }
              }
            }
            JOINT LeftShoulder
            {
              OFFSET 2.38034 -1.29275 -3.7523
              CHANNELS 3 Zrotation Xrotation Yrotation
              JOINT LeftArm
              {
                OFFSET 16.3182 6.10351e-005 0
                CHANNELS 3 Zrotation Xrotation Yrotation
                JOINT LeftForeArm
                {
                  OFFSET 27.0901 0 0
                  CHANNELS 3 Zrotation Xrotation Yrotation
                  JOINT LeftHand
                  {
                    OFFSET 24.5451 1.52588e-005 0
                    CHANNELS 3 Zrotation Xrotation Yrotation
                    End Site
                    {
                      OFFSET 0 0 0
                    }
                  }
                }
              }
            }
            JOINT Neck
            {
              OFFSET 5.0226 -0.0266342 0
              CHANNELS 3 Zrotation Xrotation Yrotation
              JOINT Head
              {
                OFFSET 6.69363 2.86102e-005 0
                CHANNELS 3 Zrotation Xrotation Yrotation
                End Site
                {
                  OFFSET 0 0 0
                }
              }
            }
          }
        }
      }
    }
  }
}
MOTION
Frames:	6
Frame Time:	0.0416667
-309.074 75.6983 325.148 122.612 62.3069 57.3418 178.959 27.4066 70.4608 -76.0086 31.8862 7.15789 74.3217 34.1331 36.4416 133.534 -11.2383 4.99864 -145.761 -32.6464 155.546 -116.34 14.4644 -83.1121 -39.6237 -57.5743 58.9136 -15.0774 22.2843 -43.6247 -1.82214 5.46788 -89.892 15.9596 -3.54299 0.790172 4.29315 -3.50477 0.945514 -18.2808 -3.61647 -0.312578 1.73185 -3.61644 -0.312585 117.4 -3.07937 -30.0196 69.9543 -63.0394 8.62756 2.30687 9.87104 -73.2567 9.09368 8.15847 75.1159 -52.2697 -32.2826 143.759 -176.35 -48.7195 -88.8656 -125.632 41.915 -120.681 35.1255 -4.35854 -16.9002 27.0481 21.8253 -1.39122 -123.562 7.9526 12.2822 
-309.39 75.5884 325.412 121.541 62.3978 59.0011 178.85 28.1089 71.1644 -76.2721 31.7775 7.15825 75.1594 35.5302 36.4835 134.058 -12.0089 4.56386 -146.341 -32.3413 155.644 -115.654 14.0848 -83.495 -40.6346 -59.5623 59.4927 -15.5317 22.5012 -43.3261 -1.8086 5.43753 -89.9246 16.0193 -3.53222 0.725526 4.35285 -3.49687 0.880463 -18.2208 -3.58675 -0.370982 1.79185 -3.58678 -0.370999 117.455 -3.31882 -30.1742 70.5972 -63.0164 9.37615 2.45755 9.95031 -73.0603 9.47493 8.36568 74.3443 -52.5349 -31.6319 143.7 -176.465 -48.9149 -88.9088 -126.215 41.5841 -119.776 34.6039 -4.21217 -16.655 27.2349 21.011 -2.53933 -123.904 6.26421 12.741 
-310.294 75.2669 326.167 118.384 62.5817 63.8599 178.463 30.193 73.2663 -77.0199 31.3043 7.1586 77.7628 39.4578 36.1687 135.458 -14.3775 3.24422 -147.931 -31.5186 155.981 -114.721 12.8281 -84.3258 -41.5071 -64.7468 63.5696 -17.0598 23.1695 -42.201 -1.77012 5.34995 -90.0252 16.1912 -3.50586 0.526403 4.52485 -3.47929 0.680368 -18.0479 -3.50179 -0.55292 1.96477 -3.50179 -0.552927 117.623 -4.01839 -30.5909 72.3022 -62.9672 11.388 2.85957 10.1738 -72.5116 10.619 8.95878 72.1296 -53.2494 -29.82 143.57 -176.49 -49.4088 -88.7901 -127.698 40.7076 -117.431 33.0727 -3.80065 -15.9451 27.6141 18.7213 -5.62616 -124.737 1.49562 13.9921 
-311.705 74.7519 327.346 113.242 62.6338 71.67 177.613 33.6961 76.7633 -78.5171 32.3194 7.31191 80.4758 44.7893 37.31 137.172 -18.2929 1.08414 -150.167 -30.3996 156.649 -116.143 10.4578 -85.0748 -30.9139 -71.0301 82.8224 -20.1779 24.2332 -39.3859 -1.71128 5.20876 -90.1978 16.4684 -3.47576 0.185545 4.80206 -3.46421 0.338508 -17.7689 -3.37064 -0.868869 2.24375 -3.37063 -0.868868 117.906 -5.13653 -31.1776 74.6287 -62.9571 14.2136 3.40866 10.5161 -71.6968 12.5584 9.87523 68.6446 -54.2555 -27.1211 143.476 -175.808 -50.0172 -88.0245 -129.576 39.4967 -114.334 30.5632 -3.18619 -14.8181 27.7977 15.2844 -9.91415 -125.644 -5.76599 15.8194 
-313.52 74.0772 328.875 106.54 62.3324 81.6255 175.953 38.6283 81.4865 -80.5843 33.6692 7.50679 83.702 50.9377 38.0722 138.326 -22.9981 -1.58588 -152.444 -29.2552 157.693 -121.584 6.90484 -85.9507 9.5804 -69.5744 134.841 -25.2485 25.0418 -33.3986 -1.64947 5.01432 -90.4196 16.8504 -3.46524 -0.247075 5.18408 -3.47275 -0.0941463 -17.3843 -3.23063 -1.27817 2.62837 -3.23062 -1.27817 118.279 -6.58332 -31.8639 77.2354 -63.0842 17.5225 3.99399 10.9537 -70.7347 15.3152 10.9961 64.0777 -55.4178 -23.811 143.501 -174.058 -50.5829 -86.3297 -131.411 38.0839 -111.072 27.0993 -2.45861 -13.3565 27.3862 11.0981 -14.6628 -126.14 -14.8483 18.1099 
-315.668 73.2567 330.693 99.108 62.1559 92.5114 172.551 44.8769 87.2468 -83.325 35.2076 7.89027 87.1713 56.9358 37.9411 138.414 -27.2307 -4.22172 -153.246 -27.6522 159.666 -122.958 2.68824 -88.6853 38.426 -54.3805 177.14 -30.7471 24.0514 -23.9596 -1.67644 4.77359 -90.6516 17.3255 -3.63616 -0.66463 5.65957 -3.66188 -0.503748 -16.9088 -3.26816 -1.72777 3.10389 -3.26816 -1.72776 118.675 -8.2134 -32.6348 80.0366 -63.4455 21.2656 4.5354 11.4774 -69.7758 18.8343 12.1341 58.6314 -56.6686 -20.1002 143.659 -171.297 -51.0298 -83.7727 -132.889 36.5032 -108.042 22.7247 -1.72446 -11.6988 26.0706 6.54589 -19.3281 -125.747 -25.0963 20.9467 
